<svg xmlns="http://www.w3.org/2000/svg" xmlns:xlink="http://www.w3.org/1999/xlink" width="54" height="61" viewBox="0 0 54 61"><defs><path id="552aa" d="M969.732 677.957l-4.502-5.627"/><path id="552ab" d="M942.991 672.33l-4.501 5.627"/><path id="552ac" d="M932.415 673.21h-.81a2.375 2.375 0 1 0 0 4.75h45.017a2.375 2.375 0 1 0 0-4.75h-.809"/><path id="552ad" d="M960.509 648.195a6.727 6.727 0 0 1-13.12-2.086 6.727 6.727 0 0 1 4.64-6.394V636.5c-4.429.958-7.749 4.893-7.749 9.609 0 5.431 4.404 9.835 9.835 9.835 4.716 0 8.651-3.32 9.61-7.749z"/><path id="552ae" d="M978.996 646.113c0-13.743-11.14-24.883-24.883-24.883-13.743 0-24.883 11.14-24.883 24.883 0 13.742 11.14 24.883 24.883 24.883 13.743 0 24.883-11.14 24.883-24.883z"/><path id="552af" d="M956.193 646.107a2.087 2.087 0 1 0-4.173 0 2.087 2.087 0 0 0 4.173 0z"/><path id="552ag" d="M954.11 624.63v3.035"/><path id="552ah" d="M932.63 646.11h3.045"/><path id="552ai" d="M954.11 667.585v-3.035"/><path id="552aj" d="M975.595 646.11h-3.035"/><path id="552ak" d="M954.11 644.023v-9.573"/><path id="552al" d="M956.2 646.11h9.573"/><path id="552am" d="M959.5 626.85a.2.2 0 1 0-.4 0 .2.2 0 0 0 .4 0z"/><path id="552an" d="M949.134 626.75a.2.2 0 1 0-.347.2.2.2 0 0 0 .347-.2z"/><path id="552ao" d="M944.291 628.699a.2.2 0 1 0-.283.282.2.2 0 0 0 .283-.283z"/><path id="552ap" d="M940.11 631.837a.2.2 0 1 0-.2.347.2.2 0 0 0 .2-.347z"/><path id="552aq" d="M936.892 635.957a.2.2 0 1 0-.104.386.2.2 0 0 0 .104-.386z"/><path id="552ar" d="M934.85 640.76a.2.2 0 1 0 .2.2.2.2 0 0 0-.2-.2z"/><path id="552as" d="M934.75 651.127a.2.2 0 1 0 .2.345.2.2 0 0 0-.2-.345z"/><path id="552at" d="M936.699 655.968a.2.2 0 1 0 .283.283.2.2 0 0 0-.283-.283z"/><path id="552au" d="M939.837 660.14a.2.2 0 1 0 .347.2.2.2 0 0 0-.347-.2z"/><path id="552av" d="M943.957 663.368a.2.2 0 1 0 .386.104.2.2 0 0 0-.386-.104z"/><path id="552aw" d="M948.76 665.41a.2.2 0 1 0 .4 0 .2.2 0 0 0-.4 0z"/><path id="552ax" d="M959.127 665.51a.2.2 0 1 0 .346-.2.2.2 0 0 0-.346.2z"/><path id="552ay" d="M963.969 663.561a.2.2 0 1 0 0-.283.2.2 0 0 0 0 .283z"/><path id="552az" d="M968.14 660.414a.2.2 0 1 0 .2-.348.2.2 0 0 0-.2.348z"/><path id="552aA" d="M971.368 656.303a.2.2 0 1 0 .104-.386.2.2 0 1 0-.104.386z"/><path id="552aB" d="M973.41 651.5a.2.2 0 1 0 0-.4.2.2 0 1 0 0 .4z"/><path id="552aC" d="M973.51 641.134a.2.2 0 1 0-.2-.347.2.2 0 0 0 .2.347z"/><path id="552aD" d="M971.561 636.291a.2.2 0 1 0-.283-.282.2.2 0 0 0 .283.282z"/><path id="552aE" d="M968.414 632.11a.2.2 0 1 0-.348-.2.2.2 0 0 0 .348.2z"/><path id="552aF" d="M964.303 628.892a.2.2 0 1 0-.386-.104.2.2 0 0 0 .386.104z"/></defs><g><g transform="translate(-927 -619)"><g><use fill="#fff" fill-opacity="0" stroke="#106b2e" stroke-linecap="round" stroke-linejoin="round" stroke-miterlimit="50" stroke-width="3" xlink:href="#552aa"/></g><g><use fill="#fff" fill-opacity="0" stroke="#106b2e" stroke-linecap="round" stroke-linejoin="round" stroke-miterlimit="50" stroke-width="3" xlink:href="#552ab"/></g><g><use fill="#fff" fill-opacity="0" stroke="#106b2e" stroke-linecap="round" stroke-linejoin="round" stroke-miterlimit="50" stroke-width="3" xlink:href="#552ac"/></g><g><use fill="#106b2e" xlink:href="#552ad"/></g><g><use fill="#fff" fill-opacity="0" stroke="#c8a038" stroke-miterlimit="50" stroke-width="3" xlink:href="#552ae"/></g><g><use fill="#fff" fill-opacity="0" stroke="#c8a038" stroke-miterlimit="50" stroke-width="3" xlink:href="#552af"/></g><g><use fill="#fff" fill-opacity="0" stroke="#c8a038" stroke-linecap="round" stroke-linejoin="round" stroke-miterlimit="50" stroke-width="3" xlink:href="#552ag"/></g><g><use fill="#fff" fill-opacity="0" stroke="#c8a038" stroke-linecap="round" stroke-linejoin="round" stroke-miterlimit="50" stroke-width="3" xlink:href="#552ah"/></g><g><use fill="#fff" fill-opacity="0" stroke="#c8a038" stroke-linecap="round" stroke-linejoin="round" stroke-miterlimit="50" stroke-width="3" xlink:href="#552ai"/></g><g><use fill="#fff" fill-opacity="0" stroke="#c8a038" stroke-linecap="round" stroke-linejoin="round" stroke-miterlimit="50" stroke-width="3" xlink:href="#552aj"/></g><g><use fill="#fff" fill-opacity="0" stroke="#c8a038" stroke-linecap="round" stroke-linejoin="round" stroke-miterlimit="50" stroke-width="3" xlink:href="#552ak"/></g><g><use fill="#fff" fill-opacity="0" stroke="#c8a038" stroke-linecap="round" stroke-linejoin="round" stroke-miterlimit="50" stroke-width="3" xlink:href="#552al"/></g><g><use fill="#fff" fill-opacity="0" stroke="#c8a038" stroke-linecap="round" stroke-linejoin="round" stroke-miterlimit="50" stroke-width="3" xlink:href="#552am"/></g><g><use fill="#fff" fill-opacity="0" stroke="#c8a038" stroke-linecap="round" stroke-linejoin="round" stroke-miterlimit="50" stroke-width="3" xlink:href="#552an"/></g><g><use fill="#fff" fill-opacity="0" stroke="#c8a038" stroke-linecap="round" stroke-linejoin="round" stroke-miterlimit="50" stroke-width="3" xlink:href="#552ao"/></g><g><use fill="#fff" fill-opacity="0" stroke="#c8a038" stroke-linecap="round" stroke-linejoin="round" stroke-miterlimit="50" stroke-width="3" xlink:href="#552ap"/></g><g><use fill="#fff" fill-opacity="0" stroke="#c8a038" stroke-linecap="round" stroke-linejoin="round" stroke-miterlimit="50" stroke-width="3" xlink:href="#552aq"/></g><g><use fill="#fff" fill-opacity="0" stroke="#c8a038" stroke-linecap="round" stroke-linejoin="round" stroke-miterlimit="50" stroke-width="3" xlink:href="#552ar"/></g><g><use fill="#fff" fill-opacity="0" stroke="#c8a038" stroke-linecap="round" stroke-linejoin="round" stroke-miterlimit="50" stroke-width="3" xlink:href="#552as"/></g><g><use fill="#fff" fill-opacity="0" stroke="#c8a038" stroke-linecap="round" stroke-linejoin="round" stroke-miterlimit="50" stroke-width="3" xlink:href="#552at"/></g><g><use fill="#fff" fill-opacity="0" stroke="#c8a038" stroke-linecap="round" stroke-linejoin="round" stroke-miterlimit="50" stroke-width="3" xlink:href="#552au"/></g><g><use fill="#fff" fill-opacity="0" stroke="#c8a038" stroke-linecap="round" stroke-linejoin="round" stroke-miterlimit="50" stroke-width="3" xlink:href="#552av"/></g><g><use fill="#fff" fill-opacity="0" stroke="#c8a038" stroke-linecap="round" stroke-linejoin="round" stroke-miterlimit="50" stroke-width="3" xlink:href="#552aw"/></g><g><use fill="#fff" fill-opacity="0" stroke="#c8a038" stroke-linecap="round" stroke-linejoin="round" stroke-miterlimit="50" stroke-width="3" xlink:href="#552ax"/></g><g><use fill="#fff" fill-opacity="0" stroke="#c8a038" stroke-linecap="round" stroke-linejoin="round" stroke-miterlimit="50" stroke-width="3" xlink:href="#552ay"/></g><g><use fill="#fff" fill-opacity="0" stroke="#c8a038" stroke-linecap="round" stroke-linejoin="round" stroke-miterlimit="50" stroke-width="3" xlink:href="#552az"/></g><g><use fill="#fff" fill-opacity="0" stroke="#c8a038" stroke-linecap="round" stroke-linejoin="round" stroke-miterlimit="50" stroke-width="3" xlink:href="#552aA"/></g><g><use fill="#fff" fill-opacity="0" stroke="#c8a038" stroke-linecap="round" stroke-linejoin="round" stroke-miterlimit="50" stroke-width="3" xlink:href="#552aB"/></g><g><use fill="#fff" fill-opacity="0" stroke="#c8a038" stroke-linecap="round" stroke-linejoin="round" stroke-miterlimit="50" stroke-width="3" xlink:href="#552aC"/></g><g><use fill="#fff" fill-opacity="0" stroke="#c8a038" stroke-linecap="round" stroke-linejoin="round" stroke-miterlimit="50" stroke-width="3" xlink:href="#552aD"/></g><g><use fill="#fff" fill-opacity="0" stroke="#c8a038" stroke-linecap="round" stroke-linejoin="round" stroke-miterlimit="50" stroke-width="3" xlink:href="#552aE"/></g><g><use fill="#fff" fill-opacity="0" stroke="#c8a038" stroke-linecap="round" stroke-linejoin="round" stroke-miterlimit="50" stroke-width="3" xlink:href="#552aF"/></g></g></g></svg>