<svg xmlns="http://www.w3.org/2000/svg" xmlns:xlink="http://www.w3.org/1999/xlink" width="24" height="24" viewBox="0 0 24 24"><defs><path id="s2wva" d="M1085.243 35.538v1.994h7.509v-1.994c0-1.11-.344-2.061-1.033-2.851-.688-.79-1.587-1.185-2.698-1.185-1.11 0-2.018.395-2.722 1.185-.704.79-1.056 1.74-1.056 2.85zm15.745 16.613c.032.344 0 .626-.094.845a1.954 1.954 0 0 1-.305.516c-.11.125-.281.25-.516.376-.235.125-.547.187-.938.187h-20.486a1.95 1.95 0 0 1-.739-.129 1.417 1.417 0 0 1-.528-.363 1.444 1.444 0 0 1-.328-.622 2.09 2.09 0 0 1-.024-.833l1.807-11.85c.078-.735.422-1.377 1.032-1.924.61-.548 1.299-.822 2.065-.822h1.807v-1.994c0-.767.133-1.486.4-2.159a5.501 5.501 0 0 1 1.102-1.76c.47-.5 1.025-.895 1.666-1.185a5.075 5.075 0 0 1 2.112-.434c.766 0 1.47.145 2.112.434.641.29 1.193.685 1.654 1.185.462.5.821 1.087 1.08 1.76.258.673.387 1.392.387 2.159v1.994h1.666c.766 0 1.455.274 2.065.822.61.547.954 1.204 1.032 1.97z"/></defs><g><g transform="translate(-1077 -30)"><use fill="#106b2e" xlink:href="#s2wva"/></g></g></svg>