<svg xmlns="http://www.w3.org/2000/svg" xmlns:xlink="http://www.w3.org/1999/xlink" width="24" height="24" viewBox="0 0 24 24"><defs><path id="281aa" d="M1078.743 52.574a.297.297 0 0 1-.176-.059c-.055-.04-.074-.106-.059-.2l1.807-11.826c.047-.391.231-.731.552-1.02.32-.29.676-.435 1.067-.435h1.807v1.713c-.219.14-.399.325-.54.552-.14.226-.21.473-.21.739 0 .422.144.778.433 1.067.29.29.646.434 1.068.434.423 0 .778-.144 1.068-.434.29-.289.434-.645.434-1.067 0-.266-.07-.513-.211-.74-.141-.226-.321-.41-.54-.55v-1.714h7.509v1.713c-.22.14-.399.325-.54.552-.14.226-.211.473-.211.739 0 .422.145.778.434 1.067.29.29.645.434 1.068.434.422 0 .778-.144 1.067-.434.29-.289.435-.645.435-1.067 0-.266-.07-.513-.212-.74-.14-.226-.32-.41-.54-.55v-1.714h1.667c.39 0 .747.145 1.067.434.321.29.505.646.552 1.068l1.947 11.803c.016.047 0 .094-.046.14-.047.048-.126.071-.235.071zm7.556-19.887c.704-.79 1.611-1.185 2.722-1.185 1.11 0 2.01.395 2.698 1.185.689.79 1.033 1.74 1.033 2.85v1.995h-7.509v-1.994c0-1.11.352-2.061 1.056-2.851zm12.718 7.638c-.078-.767-.422-1.424-1.032-1.971-.61-.548-1.299-.822-2.065-.822h-1.666v-1.994c0-.767-.13-1.486-.387-2.159a5.444 5.444 0 0 0-1.08-1.76 5.045 5.045 0 0 0-1.654-1.185 5.075 5.075 0 0 0-2.112-.434c-.767 0-1.47.145-2.112.434a5.176 5.176 0 0 0-1.666 1.185c-.47.5-.837 1.087-1.103 1.76a5.818 5.818 0 0 0-.399 2.159v1.994h-1.807c-.766 0-1.454.274-2.065.822-.61.547-.954 1.189-1.032 1.924l-1.807 11.85c-.047.313-.039.59.024.833.062.242.172.45.328.622.14.156.317.277.528.363.211.086.458.13.74.13h20.485c.39 0 .703-.063.938-.188s.407-.25.516-.376c.11-.125.212-.297.305-.516.094-.219.126-.5.094-.845z"/></defs><g><g transform="translate(-1077 -30)"><use xlink:href="#281aa"/></g></g></svg>