<svg xmlns="http://www.w3.org/2000/svg" xmlns:xlink="http://www.w3.org/1999/xlink" width="51" height="51" viewBox="0 0 51 51"><defs><path id="gd9aa" d="M150.294 38.795c-.147-.148 1.735-.883 1.94-.883 2.294-.147 3.999 1.677 5.41 3.237 1.529 1.707 3.205 3.266 5.44 4.06 2.939 1.03 6.467-.205 9.084 1.766 1.822 1.384 2.763 3.797 2.822 6.033.03 1.236-.176 2.501-.794 3.59.059-.088-.852-.97-.911-1.06a26.314 26.314 0 0 0-2.646-2.471c-2.382-1.972-5.263-3.384-7.997-4.885a46.851 46.851 0 0 1-8.144-5.562c-1.44-1.236-2.822-2.53-4.204-3.825z"/><path id="gd9ab" d="M168.03 53.03c.117.088.235.44.264.558.235.5.412 1 .559 1.528.441 1.47.53 3.057.088 4.526-.206.676-.53 1.382-.97 1.91-.471.56-1.118.941-1.706 1.412-.794.646-1 1.47-.706 2.44.176.558.559 1.145.559 1.733v.118s4.588-4.291 7.5-9.14c0 0-2.353-3.058-5.589-5.086z"/><path id="gd9ac" d="M201.059 38.795c.147-.148-1.735-.883-1.941-.883-2.294-.147-4 1.677-5.412 3.237-1.53 1.707-3.206 3.266-5.441 4.06-2.941 1.03-6.47-.205-9.089 1.766-1.823 1.384-2.764 3.797-2.823 6.033-.03 1.236.176 2.501.794 3.59-.059-.088.853-.97.912-1.06a26.321 26.321 0 0 1 2.647-2.471c2.382-1.972 5.265-3.384 8-4.885a46.871 46.871 0 0 0 8.147-5.562c1.441-1.236 2.823-2.53 4.206-3.825z"/><path id="gd9ad" d="M183.317 53.03c-.118.088-.235.44-.265.558-.235.5-.41 1-.558 1.528-.44 1.47-.529 3.057-.088 4.526.206.676.529 1.382.97 1.91.47.56 1.116.941 1.703 1.412.793.646.999 1.47.705 2.44-.176.558-.558 1.145-.558 1.733v.118s-4.583-4.291-7.49-9.14c0 0 2.35-3.058 5.58-5.086z"/><path id="gd9ae" d="M163.412 30.96c-.06-.235-.089-.471-.147-.707-.03-.207-.03-.413-.03-.678 0-.974.236-2.242.236-3.451 0-.501-.06-1.003-.177-1.504.5.147 1.001.177 1.531.177 1.207 0 2.473-.236 3.445-.236.235 0 .47 0 .677.03.294.058.589.117.854.176a10.649 10.649 0 0 0-.972 4.454c0 .295 0 .56.03.855-.383-.03-.795-.059-1.178-.059-1.443.059-2.915.354-4.27.944zm6.386-.485c-.03-.382-.06-.794-.06-1.176 0-1.441.295-2.883.942-4.177 1.765.647 3.235 1.824 4.412 3.324l.058.059.118.147.206.088v-1.235c-1.176-1.383-2.647-2.53-4.353-3.177.118-.206.265-.382.382-.588.265-.353.647-.735 1.118-1.118.677-.588 1.5-1.206 2.147-1.911.265-.295.5-.589.706-.912V17.24h-.088c-.236.059-.383.265-.353.53v.146c0 .089-.03.206-.03.295 0 .088 0 .147.03.235a2.642 2.642 0 0 1-.412 1.059c-.412.647-1.118 1.264-1.853 1.853-.735.617-1.47 1.176-1.97 1.853a6.462 6.462 0 0 0-.53.823c-.382-.118-.765-.176-1.147-.235-.265-.03-.53-.059-.794-.059-1.088 0-2.353.235-3.441.235-.56 0-1.088-.059-1.53-.206a1.894 1.894 0 0 1-.588-.323 2.351 2.351 0 0 0-.382-.382l-.088-.118c-.118-.147-.295-.235-.471-.177-.118 0-.235.089-.324.177-.147.206-.088.47.118.618l.147.117c.118.147.235.265.353.383.118.176.235.352.294.588.147.44.206.97.206 1.53 0 1.117-.235 2.352-.235 3.44 0 .265 0 .53.059.794.058.324.117.648.205.971a5.267 5.267 0 0 0-1 .647c-.44.324-.852.765-1.264 1.235-.588.706-1.206 1.5-1.824 2.06-.323.293-.647.529-.97.705-.236.118-.471.206-.706.235-.118 0-.206-.029-.324-.029h-.382a.483.483 0 0 0-.47.206.387.387 0 0 0-.089.353c.059.235.265.382.53.353h.147c.088 0 .205.03.294.03.088 0 .147 0 .235-.03.353.059.706.176 1.059.412.647.411 1.264 1.117 1.853 1.852.617.736 1.176 1.471 1.853 1.971 1.794 1.324 3.94 1.912 6.088 1.912 1.5 0 3-.294 4.412-.794.235-.089.353-.324.264-.56-.088-.234-.323-.352-.558-.264-1.324.47-2.706.735-4.089.735-1.97 0-3.911-.529-5.559-1.764-.352-.265-.735-.647-1.117-1.118-.588-.676-1.206-1.5-1.912-2.147-.294-.265-.618-.53-.941-.706.088-.059.147-.088.235-.147.794-.53 1.441-1.294 2.059-2.03.618-.735 1.176-1.44 1.706-1.823a6.26 6.26 0 0 1 .735-.47c.412 1.147 1.03 2.176 1.794 3.117a12.746 12.746 0 0 0 4.324 3.265c.206.118.47 0 .588-.206s0-.47-.206-.588c-1.559-.735-2.97-1.765-4.03-3.03-.735-.882-1.323-1.853-1.705-2.94a9.143 9.143 0 0 1 3.618-.824h.029c2.382 0 4.53.97 6.088 2.53a8.58 8.58 0 0 1 2.53 6.087 8.7 8.7 0 0 1-.883 3.824.397.397 0 0 0 .177.559c.206.117.47.03.559-.177a9.606 9.606 0 0 0 .97-4.206c.03-4.382-2.941-8.058-6.97-9.147z"/><path id="gd9af" d="M187.559 30.282c-.03.236-.088.472-.147.708-1.353-.62-2.824-.885-4.294-.885-.383 0-.794.03-1.177.06.03-.296.03-.561.03-.856 0-1.534-.295-3.067-.971-4.454.294-.059.559-.147.853-.176.206-.03.412-.03.676-.03.971 0 2.236.236 3.442.236.529 0 1.029-.059 1.529-.177a6.2 6.2 0 0 0-.176 1.504c0 1.21.235 2.478.235 3.451.03.177.03.413 0 .62zm7.647 6.517c.03-.147 0-.265-.088-.353-.089-.147-.265-.265-.47-.206h-.383c-.118 0-.206 0-.324.03a2.219 2.219 0 0 1-.706-.236 5.055 5.055 0 0 1-.97-.706c-.618-.588-1.236-1.353-1.824-2.059-.412-.47-.794-.911-1.265-1.235a11.633 11.633 0 0 0-1-.647c.089-.323.148-.647.206-.97.03-.265.06-.53.06-.795 0-1.088-.236-2.353-.236-3.44 0-.56.059-1.09.206-1.53.088-.206.176-.412.294-.588.118-.118.265-.236.353-.383l.147-.117c.206-.148.265-.412.118-.618a.406.406 0 0 0-.324-.177c-.176-.058-.382 0-.47.177l-.089.118a2.351 2.351 0 0 0-.382.382c-.177.147-.383.235-.588.323-.442.147-.971.206-1.53.206-1.117 0-2.353-.235-3.441-.235-.265 0-.53 0-.794.059a15.87 15.87 0 0 0-1.147.235 20.078 20.078 0 0 0-.53-.823c-.5-.677-1.235-1.265-1.97-1.853-.735-.589-1.441-1.206-1.853-1.853-.235-.353-.382-.706-.412-1.06 0-.087.03-.146.03-.234 0-.089 0-.206-.03-.295v-.147c.059-.235-.118-.47-.353-.529h-.088v2.559c.206.323.441.647.706.912.647.705 1.47 1.323 2.147 1.911.441.383.853.765 1.118 1.118.147.176.264.382.382.588-1.706.647-3.177 1.794-4.353 3.177v1.235l.206-.088.117-.147.06-.06c1.146-1.5 2.646-2.676 4.411-3.323.647 1.294.941 2.736.941 4.177 0 .382-.03.794-.059 1.176C177 31.564 174 35.24 174 39.622c0 1.53.353 2.97 1 4.236.118.206.353.294.559.176.206-.118.294-.353.176-.559a8.454 8.454 0 0 1-.911-3.853c0-2.382.97-4.53 2.529-6.088a8.58 8.58 0 0 1 6.088-2.53h.03c1.264.06 2.5.324 3.617.824-.382 1.088-.94 2.088-1.706 2.941a11.75 11.75 0 0 1-4.03 3.03c-.234.117-.323.353-.205.588.118.235.353.324.588.206 1.647-.765 3.177-1.882 4.324-3.265a10.268 10.268 0 0 0 1.794-3.117c.265.147.5.294.735.47.53.383 1.088 1.088 1.706 1.824.618.735 1.265 1.5 2.059 2.03.088.058.147.087.235.146a7.141 7.141 0 0 0-.94.706c-.707.647-1.324 1.47-1.913 2.147-.382.441-.764.853-1.117 1.118-1.647 1.206-3.589 1.735-5.56 1.764-1.382 0-2.764-.264-4.087-.735-.236-.088-.471.03-.56.265-.087.235.03.47.265.559 1.412.5 2.912.794 4.412.794 2.147 0 4.265-.588 6.088-1.912.677-.5 1.265-1.235 1.853-1.97.589-.736 1.206-1.442 1.853-1.853.353-.236.706-.383 1.06-.412.087 0 .146.03.234.03.089 0 .206 0 .295-.03h.147c.323.03.558-.118.588-.353z"/></defs><g><g transform="translate(-150 -17)"><g><use fill="#c8a038" xlink:href="#gd9aa"/></g><g><use fill="#afa9a0" xlink:href="#gd9ab"/></g><g><use fill="#c8a038" xlink:href="#gd9ac"/></g><g><use fill="#afa9a0" xlink:href="#gd9ad"/></g><g><g><g><use fill="#106b2e" xlink:href="#gd9ae"/></g></g><g><g><use fill="#106b2e" xlink:href="#gd9af"/></g></g></g></g></g></svg>