<svg xmlns="http://www.w3.org/2000/svg" xmlns:xlink="http://www.w3.org/1999/xlink" width="81" height="79" viewBox="0 0 81 79"><defs><path id="rvala" d="M679.464 3497.368c-.232-.232 2.736-1.392 3.06-1.392 3.619-.232 6.309 2.645 8.535 5.104 2.412 2.69 5.055 5.15 8.58 6.402 4.638 1.624 10.204-.324 14.332 2.784 2.875 2.18 4.36 5.985 4.452 9.511.046 1.949-.278 3.944-1.252 5.66.093-.139-1.345-1.53-1.438-1.67a41.5 41.5 0 0 0-4.174-3.897c-3.757-3.108-8.302-5.335-12.616-7.702a73.914 73.914 0 0 1-12.847-8.768c-2.272-1.949-4.452-3.99-6.632-6.032z"/><path id="rvalb" d="M707.431 3519.816c.186.139.371.695.417.88.371.789.65 1.577.882 2.411.695 2.318.834 4.822.139 7.14-.325 1.066-.835 2.178-1.53 3.013-.743.88-1.763 1.483-2.69 2.225-1.253 1.02-1.578 2.318-1.114 3.848.278.88.881 1.808.881 2.735v.186s7.236-6.769 11.827-14.418c0 0-3.71-4.822-8.812-8.02z"/><path id="rvalc" d="M759.516 3497.368c.232-.232-2.737-1.392-3.061-1.392-3.618-.232-6.308 2.645-8.534 5.104-2.412 2.69-5.056 5.15-8.58 6.402-4.639 1.624-10.204-.324-14.332 2.784-2.876 2.18-4.36 5.985-4.452 9.511-.047 1.949.278 3.944 1.252 5.66-.093-.139 1.345-1.53 1.438-1.67a41.5 41.5 0 0 1 4.174-3.897c3.757-3.108 8.302-5.335 12.615-7.702a73.914 73.914 0 0 0 12.847-8.768c2.273-1.949 4.453-3.99 6.633-6.032z"/><path id="rvald" d="M731.549 3519.816c-.186.139-.371.695-.418.88-.37.789-.65 1.577-.881 2.411-.696 2.318-.835 4.822-.14 7.14.326 1.066.836 2.178 1.531 3.013.742.88 1.763 1.483 2.69 2.225 1.253 1.02 1.577 2.318 1.114 3.848-.279.88-.882 1.808-.882 2.735v.186s-7.235-6.769-11.827-14.418c0 0 3.71-4.822 8.813-8.02z"/><path id="rvale" d="M700.148 3484.983c-.093-.37-.139-.742-.232-1.113-.046-.325-.046-.65-.046-1.067 0-1.53.37-3.525.37-5.426 0-.789-.092-1.577-.277-2.366.788.232 1.577.279 2.411.279 1.902 0 3.896-.371 5.427-.371.37 0 .742 0 1.067.046.463.093.927.186 1.345.278a16.722 16.722 0 0 0-1.531 7.004c0 .464 0 .88.046 1.345a24.837 24.837 0 0 0-1.855-.093c-2.272.093-4.591.557-6.725 1.484zm10.065-.742a24.837 24.837 0 0 1-.093-1.855c0-2.273.464-4.545 1.484-6.586 2.783 1.02 5.102 2.875 6.957 5.24l.093.094.185.231.325.14v-1.948c-1.855-2.18-4.174-3.989-6.864-5.01.185-.324.417-.602.603-.927.417-.557 1.02-1.16 1.762-1.762 1.067-.928 2.365-1.902 3.386-3.015a10.85 10.85 0 0 0 1.113-1.438v-4.035h-.14c-.37.093-.602.417-.556.835v.232c0 .139-.046.324-.046.464 0 .139 0 .231.046.37a4.166 4.166 0 0 1-.65 1.67c-.648 1.02-1.762 1.995-2.921 2.922-1.16.974-2.319 1.855-3.107 2.922a10.19 10.19 0 0 0-.835 1.299c-.603-.186-1.206-.278-1.81-.371-.417-.047-.834-.093-1.251-.093-1.716 0-3.71.371-5.427.371-.881 0-1.716-.093-2.412-.325-.37-.139-.649-.278-.927-.51a3.707 3.707 0 0 0-.603-.603l-.14-.185c-.185-.232-.463-.371-.741-.279-.186 0-.371.14-.51.279-.232.324-.14.742.185.974l.232.185c.185.232.37.418.556.603.186.278.371.557.464.928.232.695.325 1.53.325 2.412 0 1.762-.371 3.71-.371 5.426 0 .417 0 .835.093 1.252.092.51.185 1.02.324 1.53a8.305 8.305 0 0 0-1.577 1.021c-.695.51-1.345 1.206-1.994 1.948-.928 1.113-1.902 2.366-2.876 3.247a7.97 7.97 0 0 1-1.53 1.113c-.371.185-.742.325-1.113.37-.186 0-.325-.045-.51-.045h-.603c-.279-.047-.603.092-.742.324-.14.14-.186.371-.14.557.093.37.418.603.835.556h.232c.14 0 .325.047.464.047.14 0 .232 0 .371-.047a4.166 4.166 0 0 1 1.67.65c1.02.649 1.994 1.762 2.922 2.922.974 1.16 1.855 2.319 2.922 3.107 2.829 2.087 6.214 3.015 9.6 3.015 2.366 0 4.731-.464 6.957-1.252.371-.14.557-.51.418-.882-.14-.37-.51-.556-.882-.417-2.087.742-4.267 1.16-6.446 1.16-3.108 0-6.169-.835-8.766-2.783-.557-.418-1.16-1.02-1.763-1.763-.927-1.067-1.901-2.365-3.014-3.386-.464-.417-.974-.834-1.485-1.113.14-.093.232-.139.372-.232 1.252-.834 2.272-2.04 3.246-3.2.974-1.16 1.855-2.273 2.69-2.875.371-.279.742-.51 1.16-.743.649 1.81 1.623 3.433 2.829 4.917 1.855 2.18 4.22 3.942 6.818 5.148.324.185.742 0 .927-.325.186-.324 0-.742-.324-.927-2.458-1.16-4.685-2.783-6.354-4.777-1.16-1.392-2.088-2.922-2.69-4.638a14.418 14.418 0 0 1 5.704-1.3h.047c3.756 0 7.142 1.531 9.6 3.99 2.458 2.458 3.989 5.843 3.989 9.6 0 2.18-.51 4.22-1.391 6.03-.186.324-.047.742.278.88.325.186.742.047.881-.277a15.148 15.148 0 0 0 1.53-6.633c.047-6.91-4.637-12.708-10.991-14.424z"/><path id="rvalf" d="M738.235 3483.916c-.047.371-.14.742-.232 1.113-2.135-.973-4.456-1.39-6.776-1.39-.604 0-1.253.045-1.857.092.047-.464.047-.881.047-1.345 0-2.412-.464-4.824-1.532-7.004.464-.092.882-.231 1.346-.278.325-.046.65-.046 1.068-.046 1.531 0 3.527.37 5.43.37.835 0 1.624-.092 2.413-.277a9.718 9.718 0 0 0-.279 2.365c0 1.902.372 3.896.372 5.426.046.279.046.65 0 .974zm12.055 10.297c.046-.232 0-.418-.14-.557-.138-.232-.417-.417-.741-.324h-.603c-.186 0-.325 0-.51.046-.371-.046-.742-.186-1.113-.371a7.97 7.97 0 0 1-1.531-1.113c-.974-.928-1.948-2.134-2.876-3.247-.649-.742-1.252-1.438-1.994-1.948-.51-.37-1.02-.696-1.577-1.02.14-.51.232-1.02.325-1.53.046-.418.093-.836.093-1.253 0-1.716-.371-3.71-.371-5.426 0-.882.092-1.717.324-2.412.14-.325.279-.65.464-.928.186-.185.417-.37.557-.603l.232-.185c.324-.232.417-.65.185-.974a.64.64 0 0 0-.51-.279c-.278-.092-.603 0-.742.279l-.14.185a3.707 3.707 0 0 0-.602.603c-.279.232-.603.371-.928.51-.696.232-1.53.325-2.412.325-1.762 0-3.71-.371-5.426-.371-.418 0-.835 0-1.252.093-.603.093-1.206.232-1.81.37-.278-.463-.556-.88-.834-1.298-.789-1.067-1.948-1.994-3.108-2.922-1.159-.927-2.272-1.901-2.921-2.922-.372-.556-.603-1.113-.65-1.67 0-.139.047-.231.047-.37 0-.14 0-.325-.047-.464v-.232c.093-.371-.185-.742-.556-.835h-.14v4.035c.325.51.696 1.02 1.114 1.438 1.02 1.113 2.319 2.087 3.385 3.015.696.602 1.345 1.205 1.763 1.762.232.278.417.603.603.928-2.69 1.02-5.01 2.829-6.865 5.009v1.948l.325-.14.186-.231.092-.093c1.81-2.366 4.175-4.22 6.957-5.241 1.02 2.04 1.485 4.313 1.485 6.586 0 .603-.047 1.252-.093 1.855-6.354 1.716-11.085 7.514-11.085 14.424 0 2.412.557 4.685 1.577 6.679.185.325.556.464.881.278.325-.185.464-.556.278-.881-.927-1.809-1.437-3.896-1.437-6.076 0-3.757 1.53-7.142 3.988-9.6 2.458-2.459 5.844-3.99 9.601-3.99h.046c1.995.094 3.943.511 5.705 1.3-.603 1.716-1.484 3.293-2.69 4.638a18.528 18.528 0 0 1-6.354 4.777c-.371.185-.51.556-.325.927.186.371.557.51.928.325 2.597-1.206 5.009-2.968 6.818-5.148a16.193 16.193 0 0 0 2.829-4.917c.417.232.788.464 1.16.743.834.602 1.716 1.716 2.69 2.875.974 1.16 1.994 2.365 3.246 3.2.14.093.232.14.371.232-.51.325-1.02.696-1.484 1.113-1.113 1.02-2.087 2.32-3.015 3.386-.603.696-1.206 1.345-1.762 1.763-2.597 1.901-5.658 2.736-8.766 2.782-2.18 0-4.36-.417-6.447-1.16-.37-.138-.742.047-.881.418-.14.371.046.742.417.881 2.227.789 4.592 1.253 6.957 1.253 3.386 0 6.726-.928 9.601-3.015 1.067-.788 1.994-1.948 2.922-3.107.928-1.16 1.902-2.273 2.922-2.922.557-.371 1.113-.603 1.67-.65.139 0 .232.047.37.047.14 0 .325 0 .465-.047h.231c.51.047.882-.185.928-.556z"/></defs><g><g transform="translate(-679 -3463)"><g><use fill="#c8a038" xlink:href="#rvala"/></g><g><use fill="#afa9a0" xlink:href="#rvalb"/></g><g><use fill="#c8a038" xlink:href="#rvalc"/></g><g><use fill="#afa9a0" xlink:href="#rvald"/></g><g><g><g><use fill="#106b2e" xlink:href="#rvale"/></g></g><g><g><use fill="#106b2e" xlink:href="#rvalf"/></g></g></g></g></g></svg>