<?xml version="1.0" encoding="utf-8" ?>
<svg xmlns="http://www.w3.org/2000/svg" xmlns:xlink="http://www.w3.org/1999/xlink" width="79" height="66">
	<defs>
		<clipPath id="clip_0">
			<rect x="-681" y="-616" width="1440" height="4203" clip-rule="evenodd"/>
		</clipPath>
	</defs>
	<g clip-path="url(#clip_0)">
		<path fill="rgb(238,173,76)" stroke="none" transform="translate(25.7045 58.5)" d="M6.05369 1.04921C5.44646 0.349737 4.49573 0 3.5453 0C2.59121 0 1.72757 0.349737 1.03691 1.04921C0.431206 1.66396 0 2.53907 0 3.50046C0 4.55246 0.431206 5.42757 1.03691 6.03861C1.72757 6.73839 2.59121 7.09091 3.5453 7.09091C4.49573 7.09091 5.36303 6.73839 6.05369 6.03861C6.6594 5.42757 7.09091 4.55246 7.09091 3.50046C7.09091 2.53907 6.6594 1.66396 6.05369 1.04921ZM3.5453 1.13951C4.23688 1.13951 4.75488 1.39895 5.18975 1.83929L5.18975 1.92402C5.61851 2.27716 5.88133 2.88788 5.88133 3.50046C5.88133 4.20303 5.61851 4.81252 5.18975 5.25224C4.75488 5.68887 4.23688 5.95202 3.5453 5.95202C2.93776 5.95202 2.33572 5.68887 1.90055 5.25224C1.46842 4.81252 1.20927 4.20303 1.20927 3.50046C1.20927 2.88788 1.46842 2.27716 1.90055 1.83929C2.33572 1.39895 2.93776 1.13951 3.5453 1.13951Z" fill-rule="evenodd"/>
	</g>
	<defs>
		<clipPath id="clip_1">
			<rect x="-681" y="-616" width="1440" height="4203" clip-rule="evenodd"/>
		</clipPath>
	</defs>
	<g clip-path="url(#clip_1)">
		<path fill="rgb(238,173,76)" stroke="none" transform="translate(3.54541 5.31818)" d="M6.054 1.03734C5.4489 0.432659 4.49603 0 3.54561 0C2.59518 0 1.73094 0.432659 1.03997 1.03734C0.431206 1.64447 0 2.59473 0 3.5453C0 4.49892 0.431206 5.36272 1.03997 6.05387C1.73094 6.65856 2.59518 7.09091 3.54561 7.09091C4.49603 7.09091 5.4489 6.65856 6.054 6.05387C6.6594 5.36272 7.09091 4.49892 7.09091 3.5453C7.09091 2.59473 6.74558 1.7285 6.054 1.03734ZM3.54561 1.21059C4.23933 1.21059 4.75855 1.47214 5.18731 1.90083L5.27685 1.90083C5.62249 2.33593 5.88133 2.94123 5.88133 3.5453C5.88133 4.1506 5.62249 4.75436 5.18731 5.19039C4.75855 5.61907 4.23933 5.88062 3.54561 5.88062C2.94051 5.88062 2.33236 5.61907 1.9036 5.19039C1.46873 4.75436 1.21202 4.1506 1.21202 3.5453C1.21202 2.85384 1.46873 2.33593 1.9036 1.90083C2.33236 1.47214 2.94051 1.21059 3.54561 1.21059Z" fill-rule="evenodd"/>
	</g>
	<defs>
		<clipPath id="clip_2">
			<rect x="-681" y="-616" width="1440" height="4203" clip-rule="evenodd"/>
		</clipPath>
	</defs>
	<g clip-path="url(#clip_2)">
		<path fill="rgb(238,173,76)" stroke="none" transform="translate(54.9545 7.97726)" d="M0.629582 0.886364C0.269776 0.886364 0 0.696685 0 0.443182C0 0.189903 0.269776 0 0.629582 0L10.8935 0C11.2523 0 11.5227 0.189903 11.5227 0.443182C11.5227 0.696685 11.2523 0.886364 10.8935 0.886364L0.629582 0.886364Z"/>
	</g>
	<defs>
		<clipPath id="clip_3">
			<rect x="-681" y="-616" width="1440" height="4203" clip-rule="evenodd"/>
		</clipPath>
	</defs>
	<g clip-path="url(#clip_3)">
		<path fill="rgb(238,173,76)" stroke="none" transform="translate(62.0454 10.6364)" d="M0.611098 0.886364C0.261546 0.886364 0 0.681966 0 0.478771C0 0.206802 0.261546 0 0.611098 0L5.59345 0C5.943 0 6.20455 0.206802 6.20455 0.478771C6.20455 0.681966 5.943 0.886364 5.59345 0.886364L0.611098 0.886364Z"/>
	</g>
	<defs>
		<clipPath id="clip_4">
			<rect x="-681" y="-616" width="1440" height="4203" clip-rule="evenodd"/>
		</clipPath>
	</defs>
	<g clip-path="url(#clip_4)">
		<path fill="rgb(238,173,76)" stroke="none" transform="translate(-6.10352e-05 47.1718)" d="M0.61631 1.40223C0.265023 1.40223 0 1.10193 0 0.700582C0 0.299591 0.265023 0 0.61631 0L10.6648 0C11.016 0 11.2836 0.299591 11.2836 0.700582C11.2836 1.10193 11.016 1.40223 10.6648 1.40223L0.61631 1.40223Z"/>
	</g>
	<defs>
		<clipPath id="clip_5">
			<rect x="-681" y="-616" width="1440" height="4203" clip-rule="evenodd"/>
		</clipPath>
	</defs>
	<g clip-path="url(#clip_5)">
		<path fill="rgb(238,173,76)" stroke="none" transform="translate(7.09088 50.5227)" d="M0.613569 0.886364C0.261546 0.886364 0 0.696221 0 0.444187C0 0.190813 0.261546 0 0.613569 0L5.59345 0C5.943 0 6.20455 0.190813 6.20455 0.444187C6.20455 0.696221 5.943 0.886364 5.59345 0.886364L0.613569 0.886364Z"/>
	</g>
	<defs>
		<clipPath id="clip_6">
			<rect x="-681" y="-616" width="1440" height="4203" clip-rule="evenodd"/>
		</clipPath>
	</defs>
	<g clip-path="url(#clip_6)">
		<path fill="rgb(238,173,76)" stroke="none" transform="translate(66.4772 47.8636)" d="M10.8905 0C11.2505 0 11.5227 0.189903 11.5227 0.44251C11.5227 0.695789 11.2505 0.886364 10.8905 0.886364L0.630328 0.886364C0.270322 0.886364 0 0.695789 0 0.44251C0 0.189903 0.270322 0 0.630328 0L10.8905 0Z"/>
	</g>
	<defs>
		<clipPath id="clip_7">
			<rect x="-681" y="-616" width="1440" height="4203" clip-rule="evenodd"/>
		</clipPath>
	</defs>
	<g clip-path="url(#clip_7)">
		<path fill="rgb(238,173,76)" stroke="none" transform="translate(64.7045 50.5227)" d="M5.59289 0C5.9421 0 6.20455 0.191338 6.20455 0.443852C6.20455 0.696588 5.9421 0.886364 5.59289 0.886364L0.613507 0.886364C0.264917 0.886364 0 0.696588 0 0.443852C0 0.191338 0.264917 0 0.613507 0L5.59289 0Z"/>
	</g>
	<defs>
		<clipPath id="clip_8">
			<rect x="-681" y="-616" width="1440" height="4203" clip-rule="evenodd"/>
		</clipPath>
	</defs>
	<g clip-path="url(#clip_8)">
		<path fill="rgb(238,173,76)" stroke="none" transform="translate(21.2727 18.6136)" d="M0.361515 1.18863C0.109615 1.09627 -0.0612304 0.739496 0.0207274 0.470335C0.109615 0.112613 0.361515 -0.0667226 0.702303 0.022787L11.9594 3.15594C12.3005 3.24576 12.4711 3.6038 12.3885 3.96153C12.3005 4.31925 12.0447 4.50048 11.7042 4.40781L0.361515 1.18863Z"/>
	</g>
	<defs>
		<clipPath id="clip_9">
			<rect x="-681" y="-616" width="1440" height="4203" clip-rule="evenodd"/>
		</clipPath>
	</defs>
	<g clip-path="url(#clip_9)">
		<path fill="rgb(238,173,76)" stroke="none" transform="translate(21.2727 23.0454)" d="M0.361515 1.27038C0.109615 1.18328 -0.0612304 0.826024 0.0207274 0.467496C0.109615 0.196383 0.361515 -0.0702964 0.702303 0.0168018L11.9594 3.24672C12.3005 3.33319 12.4711 3.6914 12.3885 3.96346C12.3005 4.32199 12.0447 4.49935 11.7042 4.40814L0.361515 1.27038Z"/>
	</g>
	<defs>
		<clipPath id="clip_10">
			<rect x="-681" y="-616" width="1440" height="4203" clip-rule="evenodd"/>
		</clipPath>
	</defs>
	<g clip-path="url(#clip_10)">
		<path fill="rgb(238,173,76)" stroke="none" transform="translate(21.2727 27.4773)" d="M0.361515 1.18833C0.109615 1.09841 -0.0612304 0.74001 0.0207274 0.471843C0.109615 0.113443 0.361515 -0.0686059 0.702303 0.0238435L11.9594 3.16142C12.3005 3.24628 12.4711 3.60753 12.3885 3.96656C12.3005 4.23472 12.0447 4.50321 11.7042 4.41456L0.361515 1.18833Z"/>
	</g>
	<defs>
		<clipPath id="clip_11">
			<rect x="-681" y="-616" width="1440" height="4203" clip-rule="evenodd"/>
		</clipPath>
	</defs>
	<g clip-path="url(#clip_11)">
		<path fill="rgb(238,173,76)" stroke="none" transform="translate(21.2727 31.9091)" d="M0.361515 1.27115C0.109615 1.1844 -0.0612304 0.825686 0.0207274 0.46507C0.109615 0.196586 0.361515 -0.0715815 0.702303 0.0173854L11.9594 3.24331C12.3005 3.33196 12.4711 3.69131 12.3885 3.96264C12.3005 4.32041 12.0447 4.50024 11.7042 4.40779L0.361515 1.27115Z"/>
	</g>
	<defs>
		<clipPath id="clip_12">
			<rect x="-681" y="-616" width="1440" height="4203" clip-rule="evenodd"/>
		</clipPath>
	</defs>
	<g clip-path="url(#clip_12)">
		<path fill="rgb(238,173,76)" stroke="none" transform="translate(43.4318 18.6136)" d="M11.705 0.0227877C12.0467 -0.0667247 12.3013 0.112616 12.3869 0.47035C12.4722 0.739519 12.3013 1.0963 12.0467 1.18866L0.702589 4.40795C0.361786 4.5003 0.10656 4.31907 0.0218866 3.96133C-0.0636908 3.6036 0.10656 3.24555 0.447363 3.15604L11.705 0.0227877Z"/>
	</g>
	<defs>
		<clipPath id="clip_13">
			<rect x="-681" y="-616" width="1440" height="4203" clip-rule="evenodd"/>
		</clipPath>
	</defs>
	<g clip-path="url(#clip_13)">
		<path fill="rgb(238,173,76)" stroke="none" transform="translate(43.4318 23.0454)" d="M11.705 0.0168018C12.0467 -0.0702964 12.3013 0.196383 12.3869 0.467496C12.4722 0.826024 12.3013 1.18328 12.0467 1.27038L0.702589 4.40814C0.361786 4.49935 0.10656 4.32199 0.0218866 3.96346C-0.0636908 3.6914 0.10656 3.33319 0.447363 3.24672L11.705 0.0168018Z"/>
	</g>
	<defs>
		<clipPath id="clip_14">
			<rect x="-681" y="-616" width="1440" height="4203" clip-rule="evenodd"/>
		</clipPath>
	</defs>
	<g clip-path="url(#clip_14)">
		<path fill="rgb(238,173,76)" stroke="none" transform="translate(43.4318 27.4773)" d="M11.705 0.0238435C12.0467 -0.0686059 12.3013 0.113443 12.3869 0.471843C12.4722 0.74001 12.3013 1.09841 12.0467 1.18833L0.702589 4.41456C0.361786 4.50321 0.10656 4.23472 0.0218866 3.96656C-0.0636908 3.60753 0.10656 3.24628 0.447363 3.16142L11.705 0.0238435Z"/>
	</g>
	<defs>
		<clipPath id="clip_15">
			<rect x="-681" y="-616" width="1440" height="4203" clip-rule="evenodd"/>
		</clipPath>
	</defs>
	<g clip-path="url(#clip_15)">
		<path fill="rgb(238,173,76)" stroke="none" transform="translate(43.4318 31.9091)" d="M11.705 0.0173846C12.0467 -0.0715819 12.3013 0.196584 12.3869 0.465383C12.4722 0.825998 12.3013 1.1844 12.0467 1.27115L0.702589 4.40777C0.361786 4.50022 0.10656 4.3207 0.0218866 3.96262C-0.0636908 3.69129 0.10656 3.33226 0.447363 3.24361L11.705 0.0173846Z"/>
	</g>
	<defs>
		<clipPath id="clip_16">
			<rect x="-681" y="-616" width="1440" height="4203" clip-rule="evenodd"/>
		</clipPath>
	</defs>
	<g clip-path="url(#clip_16)">
		<path fill="rgb(238,173,76)" stroke="none" transform="translate(9.75 17.7273)" d="M7.77835 0.982494L2.95132 0.0167706L2.85906 0.0167706C2.50136 -0.0701755 2.23624 0.192215 2.14398 0.543416L0 25.0597C0 25.3268 0.178217 25.5864 0.446174 25.6774L29.3319 32.7073C29.3319 32.7073 29.4213 32.7955 29.511 32.7955C29.8675 32.7955 30.1364 32.5318 30.1364 32.1816L30.0469 5.9024C30.0469 5.64187 29.8675 5.37576 29.6004 5.37576L29.4213 5.29036C29.0639 5.29036 28.7925 5.55027 28.7925 5.9024L28.5245 25.6774L6.88505 20.8432L8.22516 1.5964C8.31774 1.33307 8.04725 0.982494 7.77835 0.982494ZM3.30839 1.33307L6.97448 2.0392L5.63153 21.2819C5.54495 21.6325 5.80975 21.8996 6.0815 21.9846L28.8857 26.9952L28.8857 31.3882L1.25068 24.621L3.30839 1.33307Z" fill-rule="evenodd"/>
	</g>
	<defs>
		<clipPath id="clip_17">
			<rect x="-681" y="-616" width="1440" height="4203" clip-rule="evenodd"/>
		</clipPath>
	</defs>
	<g clip-path="url(#clip_17)">
		<path fill="rgb(238,173,76)" stroke="none" transform="translate(38.1136 17.7273)" d="M26.9377 0.0168634L21.9016 0.982584C21.6379 1.06984 21.3726 1.33316 21.3726 1.59648L22.7839 20.8429L1.41163 25.6771L1.23529 9.50514C1.23529 9.15363 0.881371 8.89311 0.617959 8.89311C0.263725 8.89311 0 9.15363 0 9.50514L0 32.1816C0 32.5318 0.263725 32.7955 0.617959 32.7955C0.617959 32.7955 0.706283 32.7073 0.793671 32.7073L28.7913 26.8192C29.0559 26.731 29.3206 26.467 29.2329 26.2046L27.556 0.543196C27.556 0.192308 27.2916 -0.070393 26.9377 0.0168634ZM22.6962 2.03929L26.4059 1.33316L27.9966 25.7625L1.23529 31.3882L1.23529 26.907L23.4937 21.9847C23.8466 21.8993 24.023 21.6325 24.023 21.282L22.6962 2.03929Z" fill-rule="evenodd"/>
	</g>
	<defs>
		<clipPath id="clip_18">
			<rect x="-681" y="-616" width="1440" height="4203" clip-rule="evenodd"/>
		</clipPath>
	</defs>
	<g clip-path="url(#clip_18)">
		<path fill="rgb(82,117,185)" stroke="none" transform="translate(70.0227 26.5909)" d="M4.43334 1.79918C4.07603 1.43934 3.63323 1.1697 3.10243 1.1697C2.57038 1.1697 2.12758 1.43934 1.77402 1.79918C1.41985 2.0685 1.24291 2.60682 1.24291 3.05908C1.24291 3.59867 1.41985 4.04617 1.77402 4.406C2.12758 4.76425 2.57038 4.94464 3.10243 4.94464C3.63323 4.94464 4.07603 4.76425 4.43334 4.406C4.78752 4.04617 4.96414 3.59867 4.96414 3.05908C4.96414 2.60682 4.78752 2.0685 4.43334 1.79918M3.10243 0C3.98741 0 4.69889 0.358248 5.23063 0.900701C5.85005 1.43934 6.20455 2.24794 6.20455 3.05908C6.20455 3.9566 5.85005 4.76425 5.23063 5.30384C4.69889 5.84471 3.89878 6.20455 3.10243 6.20455C2.2162 6.20455 1.50753 5.84471 0.888108 5.30384L0.888108 5.21365C0.354492 4.67532 0 3.9566 0 3.05908C0 2.24794 0.354492 1.43934 0.888108 0.900701C1.50753 0.358248 2.2162 0 3.10243 0"/>
	</g>
	<defs>
		<clipPath id="clip_19">
			<rect x="-681" y="-616" width="1440" height="4203" clip-rule="evenodd"/>
		</clipPath>
	</defs>
	<g clip-path="url(#clip_19)">
		<path fill="rgb(82,117,185)" stroke="none" transform="translate(25.7045 0)" d="M10.8931 0C11.2542 0 11.5227 0.186992 11.5227 0.440495C11.5227 0.693997 11.2542 0.886364 10.8931 0.886364L0.629582 0.886364C0.269457 0.886364 0 0.693997 0 0.440495C0 0.186992 0.269457 0 0.629582 0L10.8931 0Z"/>
	</g>
	<defs>
		<clipPath id="clip_20">
			<rect x="-681" y="-616" width="1440" height="4203" clip-rule="evenodd"/>
		</clipPath>
	</defs>
	<g clip-path="url(#clip_20)">
		<path fill="rgb(82,117,185)" stroke="none" transform="translate(23.9318 2.65909)" d="M5.59345 0C5.94269 0 6.20455 0.189329 6.20455 0.441842C6.20455 0.694355 5.94269 0.886364 5.59345 0.886364L0.613569 0.886364C0.261546 0.886364 0 0.694355 0 0.441842C0 0.189329 0.261546 0 0.613569 0L5.59345 0Z"/>
	</g>
	<defs>
		<clipPath id="clip_21">
			<rect x="-681" y="-616" width="1440" height="4203" clip-rule="evenodd"/>
		</clipPath>
	</defs>
	<g clip-path="url(#clip_21)">
		<path fill="rgb(82,117,185)" stroke="none" transform="translate(11.5227 45.2045)" d="M1.24423 17.0308L26.4949 5.28735L10.3111 1.28442C8.00141 3.06172 5.77782 4.93303 4.08711 7.42181C2.57707 9.82382 1.51099 12.8496 1.24423 17.0308M28.0087 4.66264L28.2748 5.1094C28.4524 5.37413 28.3638 5.73254 28.0087 5.90892L0.888871 18.5418C0.618973 18.7201 0.177837 18.5418 0.0860907 18.278C0 18.1872 0 18.1004 0 17.9224C0.0860907 13.0279 1.33252 9.55752 3.11246 6.79899C4.88989 4.04328 7.29038 1.99591 9.77852 0.12586C9.95605 0.0365705 10.1339 -0.0517757 10.3111 0.0365705L27.5651 4.30737C27.7413 4.30737 27.9192 4.48469 28.0087 4.66264"/>
	</g>
	<defs>
		<clipPath id="clip_22">
			<rect x="-681" y="-616" width="1440" height="4203" clip-rule="evenodd"/>
		</clipPath>
	</defs>
	<g clip-path="url(#clip_22)">
		<path fill="rgb(82,117,185)" stroke="none" transform="translate(38.1136 45.2045)" d="M0.445082 3.84566L0.0884648 4.45973C-0.0884298 4.71951 -0.000453814 5.07195 0.356163 5.24524L27.4754 17.6567C27.7418 17.8318 28.0975 17.6567 28.2757 17.3975C28.3636 17.308 28.3636 17.223 28.3636 17.0482C28.2757 12.2394 27.2093 8.91762 25.4293 6.38102C23.7411 3.76072 21.5175 2.01272 18.9376 0.0877244C18.8487 0 18.6715 0 18.494 0L0.888732 3.58712C0.710581 3.58712 0.533058 3.67145 0.445082 3.84566ZM27.12 16.1722L1.68774 4.63457L18.494 1.22536C20.8068 2.97274 22.9387 4.71951 24.4518 6.99602C25.9622 9.26666 26.9419 12.064 27.12 16.1722Z" fill-rule="evenodd"/>
	</g>
	<defs>
		<clipPath id="clip_23">
			<rect x="-681" y="-616" width="1440" height="4203" clip-rule="evenodd"/>
		</clipPath>
	</defs>
	<g clip-path="url(#clip_23)">
		<path fill="rgb(82,117,185)" stroke="none" transform="translate(21.2727 46.9773)" d="M8.85338 0.0952264C9.12121 -0.0881603 9.47843 0.00480657 9.65752 0.275748C9.83566 0.545734 9.74595 0.994012 9.47843 1.08539L0.899447 6.13234C0.628136 6.31191 0.270915 6.13234 0.0927779 5.85949C-0.0866222 5.59269 0.00560461 5.23196 0.270915 5.04794L8.85338 0.0952264Z"/>
	</g>
	<defs>
		<clipPath id="clip_24">
			<rect x="-681" y="-616" width="1440" height="4203" clip-rule="evenodd"/>
		</clipPath>
	</defs>
	<g clip-path="url(#clip_24)">
		<path fill="rgb(82,117,185)" stroke="none" transform="translate(48.75 46.9773)" d="M0.35438 1.08539C0.000465041 0.994012 -0.0886413 0.545734 0.0883164 0.275748C0.266529 0.00480657 0.621386 -0.0881603 0.887136 0.0952264L9.40934 5.04794C9.67886 5.23196 9.85581 5.59269 9.67886 5.85949C9.50096 6.13234 9.14359 6.31191 8.78842 6.13234L0.35438 1.08539Z"/>
	</g>
	<defs>
		<clipPath id="clip_25">
			<rect x="-681" y="-616" width="1440" height="4203" clip-rule="evenodd"/>
		</clipPath>
	</defs>
	<g clip-path="url(#clip_25)">
		<path fill="rgb(82,117,185)" stroke="none" transform="translate(28.3636 54.0682)" d="M0 0.886364L20.3864 0.886364L20.3864 0L0 0L0 0.886364Z"/>
	</g>
	<defs>
		<clipPath id="clip_26">
			<rect x="-681" y="-616" width="1440" height="4203" clip-rule="evenodd"/>
		</clipPath>
	</defs>
	<g clip-path="url(#clip_26)">
		<path fill="rgb(82,117,185)" stroke="none" transform="translate(15.0682 13.2954)" d="M13.4212 2.19454C10.1803 1.22578 6.67376 0.873157 2.90725 1.57808L1.24421 24.851L22.4409 29.7004L22.703 6.86831C19.7283 4.83981 16.6622 3.16331 13.4212 2.19454M2.20712 0.42989C6.41376 -0.360388 10.1803 -0.00714565 13.7716 1.04915C17.2747 2.10732 20.5154 3.87167 23.6684 6.07273C23.8439 6.24842 23.9318 6.42504 23.9318 6.60166L23.6684 30.4929C23.6684 30.7576 23.4072 31.0227 23.0559 31.0227L22.8788 31.0227L0.457107 25.9107C0.191232 25.9107 -0.0684529 25.6431 0.0163548 25.2914L1.68218 0.961623C1.68218 0.696847 1.94465 0.42989 2.20712 0.42989"/>
	</g>
	<defs>
		<clipPath id="clip_27">
			<rect x="-681" y="-616" width="1440" height="4203" clip-rule="evenodd"/>
		</clipPath>
	</defs>
	<g clip-path="url(#clip_27)">
		<path fill="rgb(82,117,185)" stroke="none" transform="translate(38.1136 13.2954)" d="M21.6516 0.42989C17.5334 -0.360388 13.7643 -0.00714565 10.1709 1.04915C6.66165 2.10732 3.33082 3.87198 0.266057 6.07273C0.09137 6.24842 0 6.42504 0 6.60166L0.266057 30.4929C0.266057 30.758 0.528707 31.0227 0.87901 31.0227L0.966044 31.0227L23.4945 25.911C23.7568 25.911 23.9318 25.6431 23.9318 25.2914L22.2649 0.961623C22.1781 0.696847 22.0022 0.42989 21.6516 0.42989ZM10.5212 2.19454C13.7643 1.22578 17.2699 0.873468 21.0389 1.57808L22.7022 24.8513L1.49196 29.7007L1.22962 6.86862C4.12218 4.83981 7.19035 3.16362 10.5212 2.19454Z" fill-rule="evenodd"/>
	</g>
</svg>
