<svg xmlns="http://www.w3.org/2000/svg" xmlns:xlink="http://www.w3.org/1999/xlink" width="48" height="57" viewBox="0 0 48 57"><defs><path id="wiufa" d="M464.435 666.382L455 661.25l19.673-36.16 9.435 5.133z"/><path id="wiufb" d="M485.74 622.407l-5.8-3.156a2.055 2.055 0 0 0-2.788.823l-2.522 4.635 9.413 5.122 2.521-4.635a2.056 2.056 0 0 0-.823-2.789z"/><path id="wiufc" d="M483.687 623.234l-3.491-1.662c-.6-.286-1.352-.092-1.678.434l-1.518 2.44 5.665 2.698 1.518-2.441c.326-.526.104-1.183-.496-1.469z"/><path id="wiufd" d="M479.372 627.12l-6.092 11.508"/><path id="wiufe" d="M455 660.97l.407 10.83 9.07-5.678z"/><path id="wiuff" d="M455.68 671.8h43.323"/><path id="wiufg" d="M478.02 665.71h20.985"/><path id="wiufh" d="M478.02 660.29h20.985"/></defs><g><g transform="translate(-453 -617)"><g><use fill="#fff" fill-opacity="0" stroke="#c8a038" stroke-linecap="round" stroke-linejoin="round" stroke-miterlimit="50" stroke-width="3" xlink:href="#wiufa"/></g><g><use fill="#fff" fill-opacity="0" stroke="#c8a038" stroke-linecap="round" stroke-miterlimit="50" stroke-width="3" xlink:href="#wiufb"/></g><g><use fill="#106b2e" xlink:href="#wiufc"/></g><g><use fill="#fff" fill-opacity="0" stroke="#a07b1b" stroke-linecap="round" stroke-miterlimit="50" stroke-width="3" xlink:href="#wiufd"/></g><g><use fill="#106b2e" xlink:href="#wiufe"/><use fill="#fff" fill-opacity="0" stroke="#106b2e" stroke-linecap="round" stroke-linejoin="round" stroke-miterlimit="50" stroke-width="3" xlink:href="#wiufe"/></g><g><use fill="#fff" fill-opacity="0" stroke="#106b2e" stroke-linecap="round" stroke-linejoin="round" stroke-miterlimit="50" stroke-width="3" xlink:href="#wiuff"/></g><g><use fill="#fff" fill-opacity="0" stroke="#c8a038" stroke-linecap="round" stroke-linejoin="round" stroke-miterlimit="50" stroke-width="3" xlink:href="#wiufg"/></g><g><use fill="#fff" fill-opacity="0" stroke="#c8a038" stroke-linecap="round" stroke-linejoin="round" stroke-miterlimit="50" stroke-width="3" xlink:href="#wiufh"/></g></g></g></svg>